<mxfile host="app.diagrams.net" modified="2023-11-27T15:50:38.761Z" agent="Mozilla/5.0 (Windows NT 10.0; Win64; x64) AppleWebKit/537.36 (KHTML, like Gecko) Chrome/119.0.0.0 Safari/537.36" etag="QisAoN6IXTr7b2Wr7WA_" version="22.1.4" type="github">
  <diagram name="Page-1" id="eboVghUOnX-hbBIMunlP">
    <mxGraphModel dx="1000" dy="1653" grid="1" gridSize="10" guides="1" tooltips="1" connect="1" arrows="1" fold="1" page="1" pageScale="1" pageWidth="850" pageHeight="1100" math="0" shadow="0">
      <root>
        <mxCell id="0" />
        <mxCell id="1" parent="0" />
        <mxCell id="pwEES7ypvmdls3ihfYxj-25" style="edgeStyle=orthogonalEdgeStyle;rounded=0;orthogonalLoop=1;jettySize=auto;html=1;entryX=0.5;entryY=0;entryDx=0;entryDy=0;" edge="1" parent="1" source="pwEES7ypvmdls3ihfYxj-1" target="pwEES7ypvmdls3ihfYxj-2">
          <mxGeometry relative="1" as="geometry" />
        </mxCell>
        <mxCell id="pwEES7ypvmdls3ihfYxj-1" value="Both user and computer receive two cards randomly" style="rounded=1;whiteSpace=wrap;html=1;" vertex="1" parent="1">
          <mxGeometry x="350" y="80" width="120" height="60" as="geometry" />
        </mxCell>
        <mxCell id="pwEES7ypvmdls3ihfYxj-16" style="edgeStyle=orthogonalEdgeStyle;rounded=0;orthogonalLoop=1;jettySize=auto;html=1;exitX=0;exitY=0;exitDx=0;exitDy=0;" edge="1" parent="1" source="pwEES7ypvmdls3ihfYxj-2" target="pwEES7ypvmdls3ihfYxj-13">
          <mxGeometry relative="1" as="geometry">
            <Array as="points">
              <mxPoint x="363" y="180" />
            </Array>
          </mxGeometry>
        </mxCell>
        <mxCell id="pwEES7ypvmdls3ihfYxj-17" value="Player got BJ" style="edgeLabel;html=1;align=center;verticalAlign=middle;resizable=0;points=[];" vertex="1" connectable="0" parent="pwEES7ypvmdls3ihfYxj-16">
          <mxGeometry x="0.2026" relative="1" as="geometry">
            <mxPoint as="offset" />
          </mxGeometry>
        </mxCell>
        <mxCell id="pwEES7ypvmdls3ihfYxj-20" style="edgeStyle=orthogonalEdgeStyle;rounded=0;orthogonalLoop=1;jettySize=auto;html=1;exitX=0;exitY=1;exitDx=0;exitDy=0;entryX=1;entryY=0.5;entryDx=0;entryDy=0;" edge="1" parent="1" source="pwEES7ypvmdls3ihfYxj-2" target="pwEES7ypvmdls3ihfYxj-15">
          <mxGeometry relative="1" as="geometry">
            <Array as="points">
              <mxPoint x="363" y="320" />
            </Array>
          </mxGeometry>
        </mxCell>
        <mxCell id="pwEES7ypvmdls3ihfYxj-21" value="Computer got BJ" style="edgeLabel;html=1;align=center;verticalAlign=middle;resizable=0;points=[];" vertex="1" connectable="0" parent="pwEES7ypvmdls3ihfYxj-20">
          <mxGeometry x="0.2775" y="2" relative="1" as="geometry">
            <mxPoint as="offset" />
          </mxGeometry>
        </mxCell>
        <mxCell id="pwEES7ypvmdls3ihfYxj-27" style="edgeStyle=orthogonalEdgeStyle;rounded=0;orthogonalLoop=1;jettySize=auto;html=1;entryX=0.5;entryY=0;entryDx=0;entryDy=0;" edge="1" parent="1" source="pwEES7ypvmdls3ihfYxj-2" target="pwEES7ypvmdls3ihfYxj-4">
          <mxGeometry relative="1" as="geometry" />
        </mxCell>
        <mxCell id="pwEES7ypvmdls3ihfYxj-2" value="Detect if anyone&lt;br&gt;&amp;nbsp;get black jack (Ace + 10)" style="rhombus;whiteSpace=wrap;html=1;" vertex="1" parent="1">
          <mxGeometry x="315" y="185" width="190" height="130" as="geometry" />
        </mxCell>
        <mxCell id="pwEES7ypvmdls3ihfYxj-28" style="edgeStyle=orthogonalEdgeStyle;rounded=0;orthogonalLoop=1;jettySize=auto;html=1;entryX=0.5;entryY=0;entryDx=0;entryDy=0;" edge="1" parent="1" source="pwEES7ypvmdls3ihfYxj-4" target="pwEES7ypvmdls3ihfYxj-26">
          <mxGeometry relative="1" as="geometry" />
        </mxCell>
        <mxCell id="pwEES7ypvmdls3ihfYxj-4" value="Calculate user and computer&#39;s score based on cards value" style="rounded=1;whiteSpace=wrap;html=1;" vertex="1" parent="1">
          <mxGeometry x="350" y="370" width="120" height="60" as="geometry" />
        </mxCell>
        <mxCell id="pwEES7ypvmdls3ihfYxj-51" style="edgeStyle=orthogonalEdgeStyle;rounded=0;orthogonalLoop=1;jettySize=auto;html=1;entryX=0.5;entryY=0;entryDx=0;entryDy=0;" edge="1" parent="1" source="pwEES7ypvmdls3ihfYxj-6" target="pwEES7ypvmdls3ihfYxj-8">
          <mxGeometry relative="1" as="geometry" />
        </mxCell>
        <mxCell id="pwEES7ypvmdls3ihfYxj-69" style="edgeStyle=orthogonalEdgeStyle;rounded=0;orthogonalLoop=1;jettySize=auto;html=1;exitX=1;exitY=1;exitDx=0;exitDy=0;entryX=0;entryY=0.25;entryDx=0;entryDy=0;" edge="1" parent="1" source="pwEES7ypvmdls3ihfYxj-6" target="pwEES7ypvmdls3ihfYxj-12">
          <mxGeometry relative="1" as="geometry">
            <Array as="points">
              <mxPoint x="644" y="647" />
              <mxPoint x="820" y="647" />
            </Array>
          </mxGeometry>
        </mxCell>
        <mxCell id="pwEES7ypvmdls3ihfYxj-70" value="yes" style="edgeLabel;html=1;align=center;verticalAlign=middle;resizable=0;points=[];" vertex="1" connectable="0" parent="pwEES7ypvmdls3ihfYxj-69">
          <mxGeometry x="0.0353" y="-1" relative="1" as="geometry">
            <mxPoint as="offset" />
          </mxGeometry>
        </mxCell>
        <mxCell id="pwEES7ypvmdls3ihfYxj-6" value="Ask user do &lt;br&gt;they want to &lt;br&gt;draw a card" style="rhombus;whiteSpace=wrap;html=1;" vertex="1" parent="1">
          <mxGeometry x="352.5" y="580" width="115" height="90" as="geometry" />
        </mxCell>
        <mxCell id="pwEES7ypvmdls3ihfYxj-52" style="edgeStyle=orthogonalEdgeStyle;rounded=0;orthogonalLoop=1;jettySize=auto;html=1;entryX=0.5;entryY=0;entryDx=0;entryDy=0;" edge="1" parent="1" source="pwEES7ypvmdls3ihfYxj-8" target="pwEES7ypvmdls3ihfYxj-9">
          <mxGeometry relative="1" as="geometry" />
        </mxCell>
        <mxCell id="pwEES7ypvmdls3ihfYxj-8" value="Check total score,&amp;nbsp;&lt;br&gt;computer turn starts, draw if score is less than 17" style="rounded=1;whiteSpace=wrap;html=1;" vertex="1" parent="1">
          <mxGeometry x="350" y="720" width="120" height="60" as="geometry" />
        </mxCell>
        <mxCell id="pwEES7ypvmdls3ihfYxj-54" value="yes" style="edgeStyle=orthogonalEdgeStyle;rounded=0;orthogonalLoop=1;jettySize=auto;html=1;entryX=0;entryY=0.5;entryDx=0;entryDy=0;" edge="1" parent="1" source="pwEES7ypvmdls3ihfYxj-9" target="pwEES7ypvmdls3ihfYxj-53">
          <mxGeometry relative="1" as="geometry" />
        </mxCell>
        <mxCell id="pwEES7ypvmdls3ihfYxj-59" style="edgeStyle=orthogonalEdgeStyle;rounded=0;orthogonalLoop=1;jettySize=auto;html=1;entryX=0.5;entryY=0;entryDx=0;entryDy=0;" edge="1" parent="1" source="pwEES7ypvmdls3ihfYxj-9" target="pwEES7ypvmdls3ihfYxj-58">
          <mxGeometry relative="1" as="geometry" />
        </mxCell>
        <mxCell id="pwEES7ypvmdls3ihfYxj-9" value="Computer over 21?" style="rhombus;whiteSpace=wrap;html=1;" vertex="1" parent="1">
          <mxGeometry x="321.25" y="830" width="177.5" height="90" as="geometry" />
        </mxCell>
        <mxCell id="pwEES7ypvmdls3ihfYxj-12" value="Draw a card" style="rounded=1;whiteSpace=wrap;html=1;" vertex="1" parent="1">
          <mxGeometry x="820" y="630" width="120" height="60" as="geometry" />
        </mxCell>
        <mxCell id="pwEES7ypvmdls3ihfYxj-22" value="" style="group" vertex="1" connectable="0" parent="1">
          <mxGeometry x="70" y="150" width="120" height="200" as="geometry" />
        </mxCell>
        <mxCell id="pwEES7ypvmdls3ihfYxj-13" value="Win" style="rounded=1;whiteSpace=wrap;html=1;" vertex="1" parent="pwEES7ypvmdls3ihfYxj-22">
          <mxGeometry width="120" height="60" as="geometry" />
        </mxCell>
        <mxCell id="pwEES7ypvmdls3ihfYxj-15" value="Lose" style="rounded=1;whiteSpace=wrap;html=1;" vertex="1" parent="pwEES7ypvmdls3ihfYxj-22">
          <mxGeometry y="140" width="120" height="60" as="geometry" />
        </mxCell>
        <mxCell id="pwEES7ypvmdls3ihfYxj-24" style="edgeStyle=orthogonalEdgeStyle;rounded=0;orthogonalLoop=1;jettySize=auto;html=1;entryX=0.5;entryY=0;entryDx=0;entryDy=0;" edge="1" parent="1" source="pwEES7ypvmdls3ihfYxj-23" target="pwEES7ypvmdls3ihfYxj-1">
          <mxGeometry relative="1" as="geometry" />
        </mxCell>
        <mxCell id="pwEES7ypvmdls3ihfYxj-23" value="Start" style="rounded=1;whiteSpace=wrap;html=1;" vertex="1" parent="1">
          <mxGeometry x="350" y="-20" width="120" height="60" as="geometry" />
        </mxCell>
        <mxCell id="pwEES7ypvmdls3ihfYxj-41" style="edgeStyle=orthogonalEdgeStyle;rounded=0;orthogonalLoop=1;jettySize=auto;html=1;entryX=0.5;entryY=0;entryDx=0;entryDy=0;" edge="1" parent="1" source="pwEES7ypvmdls3ihfYxj-26" target="pwEES7ypvmdls3ihfYxj-6">
          <mxGeometry relative="1" as="geometry" />
        </mxCell>
        <mxCell id="pwEES7ypvmdls3ihfYxj-42" style="edgeStyle=orthogonalEdgeStyle;rounded=0;orthogonalLoop=1;jettySize=auto;html=1;" edge="1" parent="1" source="pwEES7ypvmdls3ihfYxj-26" target="pwEES7ypvmdls3ihfYxj-29">
          <mxGeometry relative="1" as="geometry" />
        </mxCell>
        <mxCell id="pwEES7ypvmdls3ihfYxj-44" value="yes" style="edgeLabel;html=1;align=center;verticalAlign=middle;resizable=0;points=[];" vertex="1" connectable="0" parent="pwEES7ypvmdls3ihfYxj-42">
          <mxGeometry x="-0.1636" y="-1" relative="1" as="geometry">
            <mxPoint as="offset" />
          </mxGeometry>
        </mxCell>
        <mxCell id="pwEES7ypvmdls3ihfYxj-26" value="Is the score &lt;br&gt;over 21?" style="rhombus;whiteSpace=wrap;html=1;" vertex="1" parent="1">
          <mxGeometry x="355" y="470" width="110" height="80" as="geometry" />
        </mxCell>
        <mxCell id="pwEES7ypvmdls3ihfYxj-36" style="edgeStyle=orthogonalEdgeStyle;rounded=0;orthogonalLoop=1;jettySize=auto;html=1;entryX=0;entryY=0.5;entryDx=0;entryDy=0;" edge="1" parent="1" source="pwEES7ypvmdls3ihfYxj-29" target="pwEES7ypvmdls3ihfYxj-34">
          <mxGeometry relative="1" as="geometry">
            <Array as="points">
              <mxPoint x="570" y="400" />
            </Array>
          </mxGeometry>
        </mxCell>
        <mxCell id="pwEES7ypvmdls3ihfYxj-45" value="no" style="edgeLabel;html=1;align=center;verticalAlign=middle;resizable=0;points=[];" vertex="1" connectable="0" parent="pwEES7ypvmdls3ihfYxj-36">
          <mxGeometry x="-0.5506" y="-1" relative="1" as="geometry">
            <mxPoint as="offset" />
          </mxGeometry>
        </mxCell>
        <mxCell id="pwEES7ypvmdls3ihfYxj-43" style="edgeStyle=orthogonalEdgeStyle;rounded=0;orthogonalLoop=1;jettySize=auto;html=1;entryX=0;entryY=0.5;entryDx=0;entryDy=0;" edge="1" parent="1" source="pwEES7ypvmdls3ihfYxj-29" target="pwEES7ypvmdls3ihfYxj-30">
          <mxGeometry relative="1" as="geometry" />
        </mxCell>
        <mxCell id="pwEES7ypvmdls3ihfYxj-46" value="yes" style="edgeLabel;html=1;align=center;verticalAlign=middle;resizable=0;points=[];" vertex="1" connectable="0" parent="pwEES7ypvmdls3ihfYxj-43">
          <mxGeometry x="-0.64" relative="1" as="geometry">
            <mxPoint as="offset" />
          </mxGeometry>
        </mxCell>
        <mxCell id="pwEES7ypvmdls3ihfYxj-29" value="Do they &lt;br&gt;have an Ace" style="rhombus;whiteSpace=wrap;html=1;" vertex="1" parent="1">
          <mxGeometry x="520" y="470" width="100" height="80" as="geometry" />
        </mxCell>
        <mxCell id="pwEES7ypvmdls3ihfYxj-33" style="edgeStyle=orthogonalEdgeStyle;rounded=0;orthogonalLoop=1;jettySize=auto;html=1;entryX=1;entryY=0.5;entryDx=0;entryDy=0;" edge="1" parent="1" source="pwEES7ypvmdls3ihfYxj-30" target="pwEES7ypvmdls3ihfYxj-6">
          <mxGeometry relative="1" as="geometry">
            <Array as="points">
              <mxPoint x="730" y="625" />
            </Array>
          </mxGeometry>
        </mxCell>
        <mxCell id="pwEES7ypvmdls3ihfYxj-48" value="no" style="edgeLabel;html=1;align=center;verticalAlign=middle;resizable=0;points=[];" vertex="1" connectable="0" parent="pwEES7ypvmdls3ihfYxj-33">
          <mxGeometry x="-0.8375" y="1" relative="1" as="geometry">
            <mxPoint as="offset" />
          </mxGeometry>
        </mxCell>
        <mxCell id="pwEES7ypvmdls3ihfYxj-35" style="edgeStyle=orthogonalEdgeStyle;rounded=0;orthogonalLoop=1;jettySize=auto;html=1;entryX=1;entryY=0.5;entryDx=0;entryDy=0;" edge="1" parent="1" source="pwEES7ypvmdls3ihfYxj-30" target="pwEES7ypvmdls3ihfYxj-34">
          <mxGeometry relative="1" as="geometry">
            <Array as="points">
              <mxPoint x="810" y="400" />
            </Array>
          </mxGeometry>
        </mxCell>
        <mxCell id="pwEES7ypvmdls3ihfYxj-47" value="yes" style="edgeLabel;html=1;align=center;verticalAlign=middle;resizable=0;points=[];" vertex="1" connectable="0" parent="pwEES7ypvmdls3ihfYxj-35">
          <mxGeometry x="-0.0431" relative="1" as="geometry">
            <mxPoint as="offset" />
          </mxGeometry>
        </mxCell>
        <mxCell id="pwEES7ypvmdls3ihfYxj-30" value="If ace counts 1 &lt;br&gt;instead of 11, &lt;br&gt;their total score &lt;br&gt;still over 21?" style="rhombus;whiteSpace=wrap;html=1;" vertex="1" parent="1">
          <mxGeometry x="650" y="450" width="160" height="120" as="geometry" />
        </mxCell>
        <mxCell id="pwEES7ypvmdls3ihfYxj-34" value="Lose" style="rounded=1;whiteSpace=wrap;html=1;" vertex="1" parent="1">
          <mxGeometry x="670" y="370" width="120" height="60" as="geometry" />
        </mxCell>
        <mxCell id="pwEES7ypvmdls3ihfYxj-40" style="edgeStyle=orthogonalEdgeStyle;rounded=0;orthogonalLoop=1;jettySize=auto;html=1;entryX=0.66;entryY=0.003;entryDx=0;entryDy=0;entryPerimeter=0;" edge="1" parent="1" source="pwEES7ypvmdls3ihfYxj-12" target="pwEES7ypvmdls3ihfYxj-4">
          <mxGeometry relative="1" as="geometry">
            <Array as="points">
              <mxPoint x="880" y="320" />
              <mxPoint x="429" y="320" />
            </Array>
          </mxGeometry>
        </mxCell>
        <mxCell id="pwEES7ypvmdls3ihfYxj-53" value="Win" style="rounded=1;whiteSpace=wrap;html=1;" vertex="1" parent="1">
          <mxGeometry x="570" y="845" width="120" height="60" as="geometry" />
        </mxCell>
        <mxCell id="pwEES7ypvmdls3ihfYxj-63" style="edgeStyle=orthogonalEdgeStyle;rounded=0;orthogonalLoop=1;jettySize=auto;html=1;entryX=0.5;entryY=0;entryDx=0;entryDy=0;" edge="1" parent="1" source="pwEES7ypvmdls3ihfYxj-58" target="pwEES7ypvmdls3ihfYxj-60">
          <mxGeometry relative="1" as="geometry" />
        </mxCell>
        <mxCell id="pwEES7ypvmdls3ihfYxj-68" value="same score" style="edgeLabel;html=1;align=center;verticalAlign=middle;resizable=0;points=[];" vertex="1" connectable="0" parent="pwEES7ypvmdls3ihfYxj-63">
          <mxGeometry x="-0.51" relative="1" as="geometry">
            <mxPoint as="offset" />
          </mxGeometry>
        </mxCell>
        <mxCell id="pwEES7ypvmdls3ihfYxj-64" style="edgeStyle=orthogonalEdgeStyle;rounded=0;orthogonalLoop=1;jettySize=auto;html=1;entryX=0.5;entryY=0;entryDx=0;entryDy=0;" edge="1" parent="1" source="pwEES7ypvmdls3ihfYxj-58" target="pwEES7ypvmdls3ihfYxj-61">
          <mxGeometry relative="1" as="geometry" />
        </mxCell>
        <mxCell id="pwEES7ypvmdls3ihfYxj-66" value="you are higher" style="edgeLabel;html=1;align=center;verticalAlign=middle;resizable=0;points=[];" vertex="1" connectable="0" parent="pwEES7ypvmdls3ihfYxj-64">
          <mxGeometry x="-0.3333" y="-2" relative="1" as="geometry">
            <mxPoint as="offset" />
          </mxGeometry>
        </mxCell>
        <mxCell id="pwEES7ypvmdls3ihfYxj-65" style="edgeStyle=orthogonalEdgeStyle;rounded=0;orthogonalLoop=1;jettySize=auto;html=1;entryX=0.5;entryY=0;entryDx=0;entryDy=0;" edge="1" parent="1" source="pwEES7ypvmdls3ihfYxj-58" target="pwEES7ypvmdls3ihfYxj-62">
          <mxGeometry relative="1" as="geometry" />
        </mxCell>
        <mxCell id="pwEES7ypvmdls3ihfYxj-67" value="you are lower" style="edgeLabel;html=1;align=center;verticalAlign=middle;resizable=0;points=[];" vertex="1" connectable="0" parent="pwEES7ypvmdls3ihfYxj-65">
          <mxGeometry x="-0.5238" y="4" relative="1" as="geometry">
            <mxPoint as="offset" />
          </mxGeometry>
        </mxCell>
        <mxCell id="pwEES7ypvmdls3ihfYxj-58" value="Compare score" style="rhombus;whiteSpace=wrap;html=1;" vertex="1" parent="1">
          <mxGeometry x="370" y="970" width="80" height="80" as="geometry" />
        </mxCell>
        <mxCell id="pwEES7ypvmdls3ihfYxj-60" value="draw" style="rounded=1;whiteSpace=wrap;html=1;" vertex="1" parent="1">
          <mxGeometry x="350" y="1090" width="120" height="60" as="geometry" />
        </mxCell>
        <mxCell id="pwEES7ypvmdls3ihfYxj-61" value="Win" style="rounded=1;whiteSpace=wrap;html=1;" vertex="1" parent="1">
          <mxGeometry x="195" y="1090" width="120" height="60" as="geometry" />
        </mxCell>
        <mxCell id="pwEES7ypvmdls3ihfYxj-62" value="Lose" style="rounded=1;whiteSpace=wrap;html=1;" vertex="1" parent="1">
          <mxGeometry x="520" y="1090" width="120" height="60" as="geometry" />
        </mxCell>
      </root>
    </mxGraphModel>
  </diagram>
</mxfile>
